HIERARCHY
ROOT Hips
{
 OFFSET 0.000000 0.000000 0.000000
 CHANNELS 6 Xposition Yposition Zposition Yrotation Xrotation Zrotation
 JOINT Chest
 {
  OFFSET 0.000000 9.585900 0.002600
  CHANNELS 3 Yrotation Xrotation Zrotation
  JOINT Chest2
  {
   OFFSET 0.000000 9.601200 -0.005300
   CHANNELS 3 Yrotation Xrotation Zrotation
   JOINT Chest3
   {
    OFFSET 0.000000 9.561800 0.000000
    CHANNELS 3 Yrotation Xrotation Zrotation
    JOINT Chest4
    {
     OFFSET 0.000000 9.552100 0.000000
     CHANNELS 3 Yrotation Xrotation Zrotation
     JOINT Neck
     {
      OFFSET 0.000000 14.453000 0.000000
      CHANNELS 3 Yrotation Xrotation Zrotation
      JOINT Head
      {
       OFFSET 0.000000 8.936500 -0.011300
       CHANNELS 3 Yrotation Xrotation Zrotation
       End Site
       {
        OFFSET 0.000000 17.073600 -0.006000
       }
      }
     }
     JOINT RightCollar
     {
      OFFSET -2.921100 9.558500 0.000000
      CHANNELS 3 Yrotation Xrotation Zrotation
      JOINT RightShoulder
      {
       OFFSET -13.519700 0.000000 0.000000
       CHANNELS 3 Yrotation Xrotation Zrotation
       JOINT RightElbow
       {
        OFFSET 0.000000 -29.696600 0.000000
        CHANNELS 3 Yrotation Xrotation Zrotation
        JOINT RightWrist
        {
         OFFSET 0.000000 -24.004700 0.000000
         CHANNELS 3 Yrotation Xrotation Zrotation
         End Site
         {
          OFFSET 0.000000 -17.728500 0.000000
         }
        }
       }
      }
     }
     JOINT LeftCollar
     {
      OFFSET 2.921100 9.558500 0.000000
      CHANNELS 3 Yrotation Xrotation Zrotation
      JOINT LeftShoulder
      {
       OFFSET 13.519700 0.000000 0.000000
       CHANNELS 3 Yrotation Xrotation Zrotation
       JOINT LeftElbow
       {
        OFFSET 0.000000 -29.696600 0.000000
        CHANNELS 3 Yrotation Xrotation Zrotation
        JOINT LeftWrist
        {
         OFFSET 0.000000 -24.004700 0.000000
         CHANNELS 3 Yrotation Xrotation Zrotation
         End Site
         {
          OFFSET 0.000000 -17.728500 0.000000
         }
        }
       }
      }
     }
    }
   }
  }
 }
 JOINT RightHip
 {
  OFFSET -7.771700 -0.012900 -0.001300
  CHANNELS 3 Yrotation Xrotation Zrotation
  JOINT RightKnee
  {
   OFFSET 0.000000 -40.869800 0.001200
   CHANNELS 3 Yrotation Xrotation Zrotation
   JOINT RightAnkle
   {
    OFFSET 0.000000 -39.717900 0.002100
    CHANNELS 3 Yrotation Xrotation Zrotation
    JOINT RightToe
    {
     OFFSET 0.000000 -4.965400 11.033500
     CHANNELS 3 Yrotation Xrotation Zrotation
     End Site
     {
      OFFSET 0.000000 -1.423100 5.872300
     }
    }
   }
  }
 }
 JOINT LeftHip
 {
  OFFSET 7.771700 -0.012900 -0.001300
  CHANNELS 3 Yrotation Xrotation Zrotation
  JOINT LeftKnee
  {
   OFFSET 0.000000 -40.869800 0.001200
   CHANNELS 3 Yrotation Xrotation Zrotation
   JOINT LeftAnkle
   {
    OFFSET 0.000000 -39.717900 0.002100
    CHANNELS 3 Yrotation Xrotation Zrotation
    JOINT LeftToe
    {
     OFFSET 0.000000 -4.965400 11.033500
     CHANNELS 3 Yrotation Xrotation Zrotation
     End Site
     {
      OFFSET 0.000000 -1.423100 5.872300
     }
    }
   }
  }
 }
}
MOTION
Frames: 12
Frame Time: 0.008333
-68.832848 55.583776 -34.072606 -175.549209 -13.914054 -1.234899 -0.315978 14.954592 1.282594 -0.047749 1.379629 0.122551 -0.077144 2.274577 0.212844 -0.345275 13.365182 1.199951 0.050102 14.235455 -0.051363 0.056855 -10.769936 -0.059080 0.303615 1.423718 0.111785 0.983537 -8.284959 -6.655851 -67.686454 -43.907522 103.236030 -21.540376 -3.151447 -2.222743 -5.837467 -0.960310 1.597850 2.343941 -12.491387 5.152836 51.202335 -40.040735 -95.235402 15.745195 -10.947097 5.089073 -5.054572 -61.439738 11.691528 -26.225988 85.499118 -29.970034 -9.652747 -15.810194 8.425403 -0.011568 0.221433 -0.157822 10.654118 -58.248915 -11.381852 90.927177 69.887150 93.215880 2.052366 -19.494778 -4.234560 0.140079 0.215865 0.067189
-68.825731 55.594615 -34.075095 -175.543890 -13.911834 -1.224955 -0.324549 14.944310 1.272747 -0.046665 1.368069 0.122683 -0.077384 2.276701 0.214037 -0.336232 13.334319 1.194250 0.050009 14.189745 -0.057114 0.064343 -10.843147 -0.070144 0.314140 1.432298 0.119179 1.006821 -8.298267 -6.669790 -67.675164 -43.887095 103.171685 -21.539717 -3.152837 -2.220251 -5.843572 -0.928508 1.600159 2.346141 -12.514358 5.154009 51.183386 -40.025176 -95.215766 15.734718 -10.967178 5.089139 -5.042390 -61.432003 11.668955 -25.860199 85.517415 -29.603649 -9.695255 -15.874225 8.478265 -0.006653 0.200647 -0.160200 10.658047 -58.250202 -11.394073 90.917452 69.884823 93.204889 2.063895 -19.469023 -4.234815 0.123705 0.197016 0.058885
-68.818285 55.604648 -34.077027 -175.542141 -13.909722 -1.214394 -0.329883 14.935172 1.263686 -0.046838 1.359918 0.124641 -0.076718 2.284028 0.211553 -0.332689 13.322854 1.193235 0.052999 14.114286 -0.072051 0.070797 -10.920823 -0.086242 0.334713 1.377087 0.123374 1.014914 -8.262030 -6.683609 -67.661675 -43.897853 103.156937 -21.541698 -3.166478 -2.224969 -5.832949 -0.974645 1.604337 2.337853 -12.487238 5.150661 51.166835 -40.010773 -95.197574 15.735369 -10.972492 5.096137 -5.018327 -61.425372 11.637945 -25.572479 85.531870 -29.311278 -9.726725 -15.941589 8.542811 -0.005405 0.197952 -0.179029 10.663939 -58.252139 -11.404941 90.913510 69.884884 93.199082 2.077724 -19.446162 -4.235810 0.107432 0.179576 0.050642
-68.809340 55.613617 -34.077913 -175.542993 -13.902458 -1.209588 -0.330959 14.917629 1.263650 -0.046193 1.345659 0.127518 -0.077183 2.301514 0.205885 -0.327518 13.314396 1.189726 0.052478 14.034880 -0.090829 0.074551 -11.002343 -0.105489 0.343692 1.349694 0.127766 1.029324 -8.254072 -6.696015 -67.649395 -43.946362 103.187534 -21.534706 -3.165102 -2.212625 -5.836178 -0.973801 1.606041 2.338756 -12.491763 5.150580 51.215937 -40.020883 -95.222073 15.751080 -10.943008 5.107743 -5.000337 -61.422786 11.619651 -25.465733 85.533752 -29.199914 -9.740066 -16.013351 8.618578 -0.003958 0.200667 -0.201850 10.652904 -58.264850 -11.396876 90.927086 69.885573 93.206362 2.093091 -19.424323 -4.239326 0.091718 0.162069 0.044095
-68.800047 55.621967 -34.079933 -175.536672 -13.902221 -1.206083 -0.340197 14.905333 1.262306 -0.040880 1.344239 0.124455 -0.081124 2.301811 0.207716 -0.321882 13.317711 1.183233 0.052905 13.948616 -0.116039 0.076833 -11.086892 -0.128704 0.356171 1.307656 0.134944 1.037204 -8.236844 -6.707989 -67.643555 -43.968566 103.185999 -21.522488 -3.164175 -2.205570 -5.841296 -0.977785 1.610581 2.342518 -12.497962 5.150263 51.256090 -40.022233 -95.225554 15.739934 -10.999483 5.123788 -4.987454 -61.412006 11.600848 -25.138021 85.553850 -28.868379 -9.782208 -16.101312 8.702923 -0.002169 0.209839 -0.225074 10.629708 -58.271827 -11.384704 90.941827 69.888547 93.216015 2.109230 -19.402005 -4.245122 0.078432 0.145714 0.038233
-68.791266 55.630589 -34.086755 -175.521398 -13.930687 -1.200011 -0.353782 14.920626 1.254358 -0.041202 1.350442 0.123089 -0.069712 2.280111 0.206377 -0.333500 13.343329 1.183411 0.054441 13.903081 -0.131035 0.087612 -11.223376 -0.179488 0.368831 1.269936 0.138722 1.046565 -8.229826 -6.719201 -67.645009 -43.997947 103.188030 -21.505419 -3.163064 -2.196770 -5.836178 -0.998758 1.618591 2.343902 -12.506093 5.144315 51.249626 -40.007986 -95.201297 15.717229 -11.051472 5.140802 -4.974044 -61.376010 11.570991 -24.757542 85.595660 -28.486727 -9.843635 -16.215245 8.798637 -0.003032 0.226343 -0.249211 10.613976 -58.242887 -11.384828 90.927516 69.888931 93.203846 2.139368 -19.342501 -4.244282 0.043527 0.095757 0.022269
-68.781396 55.637256 -34.089555 -175.509533 -13.932448 -1.193338 -0.352160 14.891313 1.250349 -0.052688 1.373677 0.121098 -0.069446 2.279794 0.206218 -0.322926 13.335822 1.179392 0.051266 13.791541 -0.174555 0.087179 -11.285698 -0.205447 0.366652 1.244617 0.147296 1.054918 -8.220061 -6.727464 -67.643101 -44.007013 103.171651 -21.454406 -3.154761 -2.170502 -5.847192 -1.011456 1.632351 2.357166 -12.541597 5.145878 51.220966 -39.967116 -95.152104 15.694867 -11.087697 5.162827 -4.962991 -61.365955 11.549969 -24.466073 85.624812 -28.193951 -9.902158 -16.320274 8.900246 -0.002480 0.238398 -0.273065 10.585419 -58.251110 -11.376882 90.953238 69.893377 93.219087 2.155907 -19.320443 -4.244865 0.031582 0.080804 0.014390
-68.769710 55.643447 -34.094266 -175.498864 -13.943248 -1.193855 -0.356369 14.885982 1.253349 -0.051123 1.373797 0.118083 -0.073354 2.287529 0.205708 -0.316062 13.326555 1.175470 0.050297 13.679734 -0.224719 0.087492 -11.347540 -0.237167 0.363015 1.224752 0.154501 1.063082 -8.210616 -6.733396 -67.657723 -44.070225 103.190745 -21.445620 -3.153134 -2.163380 -5.851920 -1.016304 1.647257 2.358840 -12.532937 5.136923 51.296632 -40.002669 -95.152806 15.714426 -11.072580 5.175228 -4.982799 -61.336766 11.580948 -24.498669 85.629405 -28.251465 -9.956590 -16.431508 9.022739 0.007046 0.259221 -0.294793 10.563447 -58.243725 -11.367753 90.951806 69.897838 93.223614 2.168887 -19.306439 -4.252568 0.026593 0.073097 0.008949
-68.758402 55.648539 -34.098254 -175.500336 -13.948204 -1.185546 -0.352615 14.873180 1.250104 -0.047811 1.375421 0.118254 -0.072461 2.286957 0.205149 -0.310684 13.325177 1.173133 0.041523 13.591986 -0.272573 0.092156 -11.435002 -0.285595 0.350614 1.206957 0.156354 1.068455 -8.194670 -6.736229 -67.668671 -44.125374 103.207744 -21.419244 -3.147883 -2.149724 -5.844931 -1.049267 1.675252 2.351637 -12.495109 5.109958 51.324534 -40.016220 -95.143196 15.706625 -11.093120 5.201190 -4.979357 -61.320167 11.589347 -24.607171 85.632179 -28.378426 -9.981496 -16.542460 9.144977 0.015039 0.277314 -0.316966 10.572102 -58.238313 -11.376952 90.948843 69.897279 93.224614 2.181430 -19.299239 -4.255284 0.011052 0.069931 0.001943
-68.748110 55.653151 -34.103927 -175.495775 -13.962384 -1.171685 -0.359153 14.878062 1.236652 -0.044928 1.366767 0.120661 -0.071578 2.286721 0.204648 -0.299027 13.306128 1.170439 0.027413 13.519946 -0.323509 0.097690 -11.522232 -0.338046 0.334142 1.207399 0.158604 1.068161 -8.164545 -6.735681 -67.669980 -44.138495 103.210234 -21.389045 -3.142805 -2.137575 -5.847810 -1.036759 1.689337 2.363860 -12.491669 5.090880 51.330610 -40.019255 -95.121793 15.711672 -11.083349 5.202127 -4.968165 -61.295620 11.583265 -24.486866 85.658092 -28.277626 -10.043126 -16.668508 9.270805 0.020823 0.296608 -0.333586 10.574942 -58.224576 -11.391022 90.955698 69.892983 93.227563 2.196739 -19.291251 -4.255303 -0.006207 0.065165 -0.005040
-68.738275 55.657140 -34.110784 -175.481607 -13.982878 -1.158265 -0.375759 14.889027 1.220617 -0.042875 1.356526 0.121659 -0.064153 2.263355 0.204942 -0.298919 13.317851 1.168622 0.018317 13.439698 -0.379331 0.103644 -11.609582 -0.394693 0.326840 1.203241 0.159961 1.078012 -8.150628 -6.738389 -67.692568 -44.198565 103.219249 -21.414970 -3.135836 -2.138747 -5.846365 -1.021778 1.698811 2.381894 -12.486927 5.076440 51.336996 -40.016484 -95.110002 15.695425 -11.118028 5.239360 -4.960227 -61.266958 11.571535 -24.174111 85.703799 -27.979203 -10.152383 -16.804289 9.395743 0.022904 0.312833 -0.343727 10.576756 -58.210000 -11.413934 90.978092 69.887786 93.248401 2.214843 -19.276986 -4.254149 -0.025893 0.053662 -0.013183
-68.728154 55.659660 -34.115359 -175.477561 -13.988929 -1.145496 -0.377680 14.875903 1.208694 -0.037703 1.338828 0.122727 -0.071861 2.288880 0.203678 -0.292294 13.302562 1.171554 0.010320 13.353261 -0.441529 0.109279 -11.697055 -0.456882 0.319669 1.212534 0.158407 1.084352 -8.160605 -6.735187 -67.728454 -44.314019 103.259640 -21.394884 -3.111972 -2.133327 -5.835779 -1.016278 1.711652 2.397832 -12.476923 5.051979 51.335788 -40.006933 -95.094788 15.682070 -11.150180 5.272710 -4.943311 -61.257238 11.559244 -24.267744 85.719773 -28.075098 -10.235408 -16.919320 9.516180 0.022901 0.322410 -0.351864 10.592660 -58.201498 -11.436170 90.975903 69.888490 93.247415 2.228682 -19.276528 -4.252653 -0.038830 0.054376 -0.019807
